<svg xmlns="http://www.w3.org/2000/svg" viewBox="0 0 400 250">
  <defs>
    <linearGradient id="cardGradient" x1="0%" y1="0%" x2="100%" y2="100%">
      <stop offset="0%" style="stop-color:#1a1a2e;stop-opacity:1" />
      <stop offset="100%" style="stop-color:#16213e;stop-opacity:1" />
    </linearGradient>
    <filter id="neonGlow">
      <feGaussianBlur stdDeviation="2" result="coloredBlur"/>
      <feMerge>
        <feMergeNode in="coloredBlur"/>
        <feMergeNode in="SourceGraphic"/>
      </feMerge>
    </filter>
  </defs>
  
  <!-- Card Background -->
  <rect width="400" height="250" rx="15" ry="15" fill="url(#cardGradient)"/>
  
  <!-- Abstract Blockchain Pattern -->
  <g fill="none" stroke="#0f4c75" stroke-width="0.5">
    <path d="M0,125 Q100,50 200,125 T400,125" />
    <path d="M0,175 Q100,100 200,175 T400,175" />
    <path d="M0,75 Q100,0 200,75 T400,75" />
  </g>
  
  <!-- Floating Particles -->
  <g fill="#3282b8" opacity="0.6">
    <circle cx="50" cy="50" r="2">
      <animate attributeName="cy" values="50;30;50" dur="4s" repeatCount="indefinite" />
    </circle>
    <circle cx="150" cy="200" r="2">
      <animate attributeName="cy" values="200;180;200" dur="3s" repeatCount="indefinite" />
    </circle>
    <circle cx="350" cy="100" r="2">
      <animate attributeName="cy" values="100;120;100" dur="5s" repeatCount="indefinite" />
    </circle>
  </g>
  
  <!-- trustBank Logo -->
  <text x="20" y="40" font-family="Arial, sans-serif" font-size="24" fill="#bbe1fa" font-weight="bold" filter="url(#neonGlow)">trustBank</text>
  
  <!-- Crypto Symbol -->
  <g transform="translate(350, 40)">
    <polygon points="0,-15 13,7 -13,7" fill="#bbe1fa" opacity="0.8" filter="url(#neonGlow)">
      <animateTransform attributeName="transform" type="rotate" from="0" to="360" dur="10s" repeatCount="indefinite"/>
    </polygon>
    <text x="0" y="5" font-family="Arial, sans-serif" font-size="14" fill="#1a1a2e" text-anchor="middle">₿</text>
  </g>
  
  <!-- Card Number -->
  <text x="60" y="150" font-family="Courier, monospace" font-size="20" fill="#bbe1fa">1234 5678 9012 3456</text>
  
  <!-- Cardholder Name -->
  <text x="20" y="200" font-family="Arial, sans-serif" font-size="14" fill="#bbe1fa">TONY</text>
  
  <!-- Expiry Date -->
  <text x="20" y="220" font-family="Arial, sans-serif" font-size="12" fill="#bbe1fa">VALID THRU: 12/28</text>
  
  <!-- Chip -->
  <g transform="translate(20, 70)">
    <rect width="50" height="40" rx="5" ry="5" fill="#3282b8" opacity="0.8"/>
    <path d="M5,10 H45 M5,20 H45 M5,30 H45" stroke="#1a1a2e" stroke-width="2"/>
  </g>
  
  <!-- Hologram -->
  <circle cx="330" cy="200" r="20" fill="url(#hologramGradient)" opacity="0.6" filter="url(#neonGlow)">
    <animate attributeName="opacity" values="0.6;0.8;0.6" dur="3s" repeatCount="indefinite" />
  </circle>
  <text x="330" y="200" font-family="Arial, sans-serif" font-size="8" fill="#1a1a2e" text-anchor="middle">SECURE</text>
</svg>
